<svg width="17" height="17" viewBox="0 0 17 17" fill="none" xmlns="http://www.w3.org/2000/svg">
<g clip-path="url(#clip0_52_250)">
<path d="M11.1562 0.53125V1.59375" stroke="#D6CCCC" stroke-width="2" stroke-linecap="round" stroke-linejoin="round"/>
<path d="M13.8125 1.39587L13.2812 2.26646" stroke="#D6CCCC" stroke-width="2" stroke-linecap="round" stroke-linejoin="round"/>
<path d="M15.6493 3.71875L14.6505 4.04082" stroke="#D6CCCC" stroke-width="2" stroke-linecap="round" stroke-linejoin="round"/>
<path d="M5.54758 6.57419L5.16707 5.91013C5.00856 5.63555 4.74747 5.4352 4.44124 5.35313C4.13501 5.27106 3.80871 5.314 3.53414 5.47251C3.25957 5.63102 3.05921 5.89211 2.97714 6.19834C2.89507 6.50457 2.93802 6.83087 3.09652 7.10544L4.35824 9.29087" stroke="#D6CCCC" stroke-width="2" stroke-linecap="round" stroke-linejoin="round"/>
<path d="M7.2748 9.56252L5.54824 6.57424C5.46633 6.43819 5.41235 6.28718 5.38946 6.13003C5.36656 5.97289 5.37521 5.81275 5.4149 5.65899C5.45458 5.50522 5.52451 5.3609 5.6206 5.23447C5.71669 5.10803 5.837 5.002 5.97453 4.92259C6.11205 4.84317 6.26402 4.79196 6.42155 4.77193C6.57909 4.75191 6.73904 4.76347 6.89206 4.80596C7.04507 4.84844 7.18809 4.92099 7.31275 5.01937C7.43742 5.11775 7.54123 5.23998 7.61812 5.37893L10.0386 9.56252" stroke="#D6CCCC" stroke-width="2" stroke-linecap="round" stroke-linejoin="round"/>
<path d="M6.77344 3.918L6.39359 3.25393C6.31511 3.11798 6.21061 2.99882 6.08607 2.90325C5.96154 2.80768 5.81939 2.73757 5.66776 2.69693C5.51613 2.6563 5.35798 2.64593 5.20234 2.66641C5.0467 2.68689 4.89662 2.73783 4.76066 2.81632C4.62471 2.8948 4.50555 2.9993 4.40998 3.12384C4.3144 3.24837 4.2443 3.39052 4.20366 3.54215C4.16303 3.69378 4.15265 3.85193 4.17314 4.00757C4.19362 4.16321 4.24456 4.31329 4.32305 4.44925L5.16707 5.91018" stroke="#D6CCCC" stroke-width="2" stroke-linecap="round" stroke-linejoin="round"/>
<path d="M7.61746 5.37893L6.77344 3.91799C6.69153 3.78194 6.63755 3.63093 6.61465 3.47378C6.59176 3.31664 6.60041 3.1565 6.64009 3.00274C6.67978 2.84897 6.74971 2.70465 6.8458 2.57822C6.94188 2.45178 7.0622 2.34575 7.19972 2.26634C7.33724 2.18692 7.48921 2.13571 7.64675 2.11568C7.80429 2.09566 7.96424 2.10722 8.11725 2.14971C8.27027 2.19219 8.41329 2.26474 8.53795 2.36312C8.66262 2.4615 8.76643 2.58373 8.84332 2.72268L11.3004 6.97268" stroke="#D6CCCC" stroke-width="2" stroke-linecap="round" stroke-linejoin="round"/>
<path d="M13.2148 12.4684C13.9402 11.7218 14.402 10.7588 14.5303 9.72583C14.6585 8.69282 14.4461 7.64617 13.9254 6.74485L12.5249 4.31638C12.4464 4.18042 12.3419 4.06126 12.2174 3.96569C12.0928 3.87012 11.9507 3.80001 11.7991 3.75938C11.4928 3.67731 11.1665 3.72025 10.892 3.87876C10.6174 4.03727 10.417 4.29836 10.335 4.60459C10.2529 4.91082 10.2958 5.23712 10.4543 5.51169" stroke="#D6CCCC" stroke-width="2" stroke-linecap="round" stroke-linejoin="round"/>
<path d="M5.4327 11.1563L4.08996 8.83205C3.93145 8.55748 3.67036 8.35712 3.36413 8.27505C3.0579 8.19298 2.7316 8.23593 2.45703 8.39443C2.18246 8.55294 1.9821 8.81403 1.90003 9.12027C1.81796 9.4265 1.86091 9.75279 2.01941 10.0274L2.65625 11.129L4.35824 14.0781C4.99228 15.1763 6.0366 15.9777 7.26147 16.3059C8.48634 16.6341 9.79143 16.4623 10.8896 15.8283C11.9878 15.1942 12.7892 14.1499 13.1174 12.9251C13.4456 11.7002 13.2738 10.3951 12.6398 9.2969L11.2984 6.97268C11.2236 6.82983 11.1208 6.70358 10.996 6.60151C10.8712 6.49944 10.7271 6.42367 10.5723 6.37875C10.4174 6.33384 10.2551 6.3207 10.0951 6.34014C9.93504 6.35958 9.7806 6.41119 9.64103 6.49187C9.50146 6.57255 9.37965 6.68062 9.28293 6.8096C9.18621 6.93857 9.11658 7.08577 9.07822 7.24236C9.03987 7.39894 9.03358 7.56166 9.05975 7.72073C9.08591 7.8798 9.14398 8.03194 9.23047 8.16799" stroke="#D6CCCC" stroke-width="2" stroke-linecap="round" stroke-linejoin="round"/>
</g>
<defs>
<clipPath id="clip0_52_250">
<rect width="17" height="17" fill="white"/>
</clipPath>
</defs>
</svg>
