<svg width="27" height="27" viewBox="0 0 27 27" fill="none" xmlns="http://www.w3.org/2000/svg">
<path d="M13.5 14.562L18.369 19.431C18.509 19.571 18.681 19.646 18.885 19.656C19.089 19.666 19.271 19.591 19.431 19.431C19.591 19.271 19.671 19.094 19.671 18.9C19.671 18.706 19.591 18.529 19.431 18.369L14.562 13.5L19.431 8.631C19.571 8.491 19.646 8.319 19.656 8.115C19.666 7.911 19.591 7.729 19.431 7.569C19.271 7.409 19.094 7.329 18.9 7.329C18.706 7.329 18.529 7.409 18.369 7.569L13.5 12.438L8.631 7.569C8.491 7.429 8.319 7.354 8.115 7.344C7.911 7.334 7.729 7.409 7.569 7.569C7.409 7.729 7.329 7.906 7.329 8.1C7.329 8.294 7.409 8.471 7.569 8.631L12.438 13.5L7.569 18.369C7.429 18.509 7.354 18.6815 7.344 18.8865C7.334 19.0895 7.409 19.271 7.569 19.431C7.729 19.591 7.906 19.671 8.1 19.671C8.294 19.671 8.471 19.591 8.631 19.431L13.5 14.562ZM13.5045 27C11.6375 27 9.8825 26.646 8.2395 25.938C6.5965 25.229 5.167 24.267 3.951 23.052C2.735 21.837 1.7725 20.409 1.0635 18.768C0.3545 17.127 0 15.3725 0 13.5045C0 11.6365 0.3545 9.8815 1.0635 8.2395C1.7715 6.5965 2.732 5.167 3.945 3.951C5.158 2.735 6.5865 1.7725 8.2305 1.0635C9.8745 0.3545 11.6295 0 13.4955 0C15.3615 0 17.1165 0.3545 18.7605 1.0635C20.4035 1.7715 21.833 2.7325 23.049 3.9465C24.265 5.1605 25.2275 6.589 25.9365 8.232C26.6455 9.875 27 11.6295 27 13.4955C27 15.3615 26.646 17.1165 25.938 18.7605C25.23 20.4045 24.268 21.834 23.052 23.049C21.836 24.264 20.408 25.2265 18.768 25.9365C17.128 26.6465 15.3735 27.001 13.5045 27Z" fill="white"/>
<path d="M13.5 14.562L18.369 19.431C18.509 19.571 18.681 19.646 18.885 19.656C19.089 19.666 19.271 19.591 19.431 19.431C19.591 19.271 19.671 19.094 19.671 18.9C19.671 18.706 19.591 18.529 19.431 18.369L14.562 13.5L19.431 8.631C19.571 8.491 19.646 8.319 19.656 8.115C19.666 7.911 19.591 7.729 19.431 7.569C19.271 7.409 19.094 7.329 18.9 7.329C18.706 7.329 18.529 7.409 18.369 7.569L13.5 12.438L8.631 7.569C8.491 7.429 8.319 7.354 8.115 7.344C7.911 7.334 7.729 7.409 7.569 7.569C7.409 7.729 7.329 7.906 7.329 8.1C7.329 8.294 7.409 8.471 7.569 8.631L12.438 13.5L7.569 18.369C7.429 18.509 7.354 18.6815 7.344 18.8865C7.334 19.0895 7.409 19.271 7.569 19.431C7.729 19.591 7.906 19.671 8.1 19.671C8.294 19.671 8.471 19.591 8.631 19.431L13.5 14.562Z" fill="#18153F"/>
</svg>
