<svg width="18" height="12" viewBox="0 0 18 12" fill="none" xmlns="http://www.w3.org/2000/svg">
<path d="M17.8417 5.54375C16.2412 2.23719 13.0726 0 9.44443 0C5.81628 0 2.64679 2.23875 1.04713 5.54406C0.97962 5.68547 0.944443 5.8417 0.944443 6.00016C0.944443 6.15861 0.97962 6.31484 1.04713 6.45625C2.64767 9.76281 5.81628 12 9.44443 12C13.0726 12 16.2421 9.76125 17.8417 6.45594C17.9092 6.31453 17.9444 6.1583 17.9444 5.99984C17.9444 5.84139 17.9092 5.68516 17.8417 5.54375ZM9.44443 10.5C8.60386 10.5 7.78216 10.2361 7.08325 9.74161C6.38434 9.24715 5.83961 8.54434 5.51794 7.72208C5.19627 6.89981 5.1121 5.99501 5.27609 5.12209C5.44008 4.24918 5.84485 3.44736 6.43922 2.81802C7.0336 2.18868 7.79087 1.7601 8.61529 1.58647C9.43971 1.41283 10.2942 1.50195 11.0708 1.84254C11.8474 2.18314 12.5112 2.75991 12.9782 3.49993C13.4452 4.23995 13.6944 5.10998 13.6944 6C13.6947 6.59103 13.585 7.17632 13.3715 7.72242C13.158 8.26851 12.8449 8.7647 12.4502 9.18262C12.0555 9.60054 11.5869 9.932 11.0712 10.158C10.5554 10.3841 10.0026 10.5003 9.44443 10.5ZM9.44443 3C9.19153 3.00374 8.94027 3.04358 8.69743 3.11844C8.8976 3.40646 8.99366 3.7609 8.96818 4.11748C8.9427 4.47406 8.79738 4.80917 8.55857 5.06203C8.31975 5.31489 8.00326 5.46876 7.66649 5.49574C7.32972 5.52271 6.99497 5.42101 6.72295 5.20906C6.56805 5.81331 6.59601 6.45377 6.8029 7.04031C7.00978 7.62685 7.38518 8.12993 7.87624 8.47874C8.3673 8.82754 8.94931 9.00452 9.54034 8.98475C10.1314 8.96498 10.7017 8.74946 11.171 8.36853C11.6402 7.9876 11.9849 7.46044 12.1564 6.86125C12.3279 6.26205 12.3176 5.62099 12.127 5.0283C11.9364 4.43561 11.5751 3.92114 11.0938 3.55728C10.6126 3.19343 10.0358 2.99853 9.44443 3Z" fill="#D6CCCC"/>
</svg>
