<svg width="31" height="34" viewBox="0 0 31 34" fill="none" xmlns="http://www.w3.org/2000/svg">
<path d="M30 19.5266C30.003 23.0362 28.5295 26.4081 25.8935 28.9239C23.2575 31.4397 19.6674 32.9005 15.8881 32.9951C12.1088 33.0897 8.43917 31.8105 5.66099 29.4302C2.88281 27.0499 1.21577 23.7566 1.01506 20.252C1.00279 20.0115 0.998016 19.7703 1.00074 19.5285C0.993027 16.0558 2.43941 12.7161 5.0345 10.2148C5.15005 10.1038 5.29353 10.0213 5.452 9.97458C5.61048 9.92789 5.77897 9.91854 5.94231 9.94736C6.10565 9.97618 6.2587 10.0423 6.38767 10.1397C6.51665 10.2371 6.6175 10.3627 6.68114 10.5053C7.26002 11.8155 8.0639 13.0307 9.06007 14.1017C10.283 12.0811 10.9241 9.80192 10.9215 7.48426C10.9248 5.69998 10.5466 3.93283 9.80873 2.28526C9.7364 2.1239 9.71459 1.94687 9.74582 1.77452C9.77704 1.60218 9.86003 1.44151 9.98524 1.31099C10.1105 1.18048 10.2728 1.08542 10.4536 1.03674C10.6344 0.988065 10.8264 0.987748 11.0074 1.03583C14.7719 2.01512 18.1098 4.06755 20.5497 6.90321C23.2141 9.97943 24.6636 13.8097 24.6571 17.7569C24.6585 17.8822 24.653 18.0063 24.6407 18.1291C25.909 17.7493 27.1138 17.2025 28.2143 16.5056C28.3516 16.4182 28.5103 16.3641 28.676 16.3482C28.8416 16.3323 29.0089 16.3551 29.1626 16.4146C29.3163 16.474 29.4515 16.5682 29.556 16.6886C29.6604 16.8089 29.7308 16.9517 29.7607 17.1037C29.9202 17.9012 30 18.7158 30 19.5285" fill="#FF7A87"/>
<path d="M30 19.5266C30.003 23.0362 28.5295 26.4081 25.8935 28.9239C23.2575 31.4397 19.6674 32.9005 15.8881 32.9951C12.1088 33.0897 8.43917 31.8105 5.66099 29.4302C2.88281 27.0499 1.21577 23.7566 1.01506 20.252C1.00279 20.0115 0.998016 19.7703 1.00074 19.5285C0.993027 16.0558 2.43941 12.7161 5.0345 10.2148C5.15005 10.1038 5.29353 10.0213 5.452 9.97458C5.61048 9.92789 5.77897 9.91854 5.94231 9.94736C6.10565 9.97618 6.2587 10.0423 6.38767 10.1397C6.51665 10.2371 6.6175 10.3627 6.68114 10.5053C7.26002 11.8155 8.0639 13.0307 9.06007 14.1017C10.283 12.0811 10.9241 9.80192 10.9215 7.48426C10.9248 5.69998 10.5466 3.93283 9.80873 2.28526C9.7364 2.1239 9.71459 1.94687 9.74581 1.77452C9.77704 1.60218 9.86003 1.44151 9.98524 1.31099C10.1105 1.18048 10.2728 1.08542 10.4536 1.03674C10.6344 0.988065 10.8264 0.987748 11.0074 1.03583C14.7719 2.01512 18.1098 4.06755 20.5497 6.90321C23.2141 9.97943 24.6636 13.8097 24.6571 17.7569C24.6585 17.8822 24.653 18.0063 24.6407 18.1291C25.909 17.7493 27.1138 17.2025 28.2143 16.5056C28.3516 16.4182 28.5103 16.3641 28.676 16.3482C28.8416 16.3323 29.0089 16.3551 29.1626 16.4146C29.3163 16.474 29.4515 16.5682 29.556 16.6886C29.6604 16.8089 29.7308 16.9517 29.7607 17.1037C29.9202 17.9012 30 18.7158 30 19.5285" stroke="#191919" stroke-linecap="round" stroke-linejoin="round"/>
</svg>
