<svg width="23" height="22" viewBox="0 0 23 22" fill="none" xmlns="http://www.w3.org/2000/svg">
<path d="M11.5 21C17.023 21 21.5 16.523 21.5 11C21.5 5.477 17.023 1 11.5 1C5.977 1 1.5 5.477 1.5 11C1.5 16.523 5.977 21 11.5 21Z" stroke="#AEADB5" stroke-width="1.5" stroke-linecap="round" stroke-linejoin="round"/>
<path d="M1.5 11H21.5" stroke="#AEADB5" stroke-width="1.5" stroke-linecap="round" stroke-linejoin="round"/>
<path d="M11.5 21C13.709 21 15.5 16.523 15.5 11C15.5 5.477 13.709 1 11.5 1C9.291 1 7.5 5.477 7.5 11C7.5 16.523 9.291 21 11.5 21Z" stroke="#AEADB5" stroke-width="1.5" stroke-linecap="round" stroke-linejoin="round"/>
<path d="M4.42902 4.07098C5.3566 5.0009 6.45879 5.73837 7.67226 6.24103C8.88573 6.74368 10.1866 7.0016 11.5 6.99998C12.8135 7.0016 14.1143 6.74368 15.3278 6.24103C16.5412 5.73837 17.6434 5.0009 18.571 4.07098M18.571 17.929C17.6434 16.9991 16.5412 16.2616 15.3278 15.7589C14.1143 15.2563 12.8135 14.9984 11.5 15C10.1866 14.9984 8.88573 15.2563 7.67226 15.7589C6.45879 16.2616 5.3566 16.9991 4.42902 17.929" stroke="#AEADB5" stroke-width="1.5" stroke-linecap="round" stroke-linejoin="round"/>
</svg>
