<svg width="23" height="22" viewBox="0 0 23 22" fill="none" xmlns="http://www.w3.org/2000/svg">
<path d="M9.51711 1H2.6453C2.01277 1 1.5 1.49746 1.5 2.11111V19.8889C1.5 20.5025 2.01277 21 2.6453 21H9.51711C10.1496 21 10.6624 20.5025 10.6624 19.8889V2.11111C10.6624 1.49746 10.1496 1 9.51711 1Z" stroke="#AEADB5" stroke-width="1.5" stroke-linecap="round" stroke-linejoin="round"/>
<path d="M6.08121 1V21M21.4283 18.6667C21.6573 19.2222 21.3137 19.8889 20.7411 20.1111L18.565 20.8889C17.9923 21.1111 17.3052 20.7778 17.0761 20.2222L10.7769 3.33333C10.5479 2.77778 10.8915 2.11111 11.4641 1.88889L13.6402 1.11111C14.2129 0.888889 14.9 1.22222 15.1291 1.77778L21.4283 18.6667Z" stroke="#AEADB5" stroke-width="1.5" stroke-linecap="round" stroke-linejoin="round"/>
</svg>
