<svg width="18" height="21" viewBox="0 0 18 21" fill="none" xmlns="http://www.w3.org/2000/svg">
<path fill-rule="evenodd" clip-rule="evenodd" d="M6.38259 1.33725C6.38259 1.14793 6.4578 0.96636 6.59167 0.83249C6.72554 0.69862 6.9071 0.623413 7.09643 0.623413H10.9035C11.0929 0.623413 11.2744 0.69862 11.4083 0.83249C11.5422 0.96636 11.6174 1.14793 11.6174 1.33725C11.6174 1.52657 11.5422 1.70813 11.4083 1.842C11.2744 1.97587 11.0929 2.05108 10.9035 2.05108H7.09643C6.9071 2.05108 6.72554 1.97587 6.59167 1.842C6.4578 1.70813 6.38259 1.52657 6.38259 1.33725ZM17.566 11.8068C17.566 12.9317 17.3444 14.0456 16.9139 15.0849C16.4835 16.1242 15.8525 17.0685 15.0571 17.8639C14.2616 18.6593 13.3173 19.2903 12.2781 19.7208C11.2388 20.1513 10.1249 20.3728 8.99998 20.3728C7.87508 20.3728 6.76119 20.1513 5.72191 19.7208C4.68264 19.2903 3.73833 18.6593 2.9429 17.8639C2.14747 17.0685 1.51651 16.1242 1.08602 15.0849C0.655541 14.0456 0.433975 12.9317 0.433975 11.8068C0.433975 9.53496 1.33646 7.35617 2.9429 5.74973C4.54934 4.14329 6.72814 3.2408 8.99998 3.2408C11.2718 3.2408 13.4506 4.14329 15.0571 5.74973C16.6635 7.35617 17.566 9.53496 17.566 11.8068ZM9.97651 9.21321C9.73286 9.04434 9.484 8.88309 9.23031 8.72971C8.20905 8.10915 7.6989 7.79887 7.2411 8.14246C6.78424 8.4851 6.74236 9.20465 6.65861 10.6437C6.63576 11.0501 6.62054 11.4489 6.62054 11.8068C6.62054 12.1647 6.63576 12.5635 6.65861 12.9699C6.74236 14.409 6.78424 15.1276 7.2411 15.4712C7.6989 15.8148 8.21001 15.5045 9.23031 14.8839C9.49491 14.7231 9.75094 14.5594 9.97651 14.4004C10.2335 14.2196 10.5143 14.0026 10.7969 13.7722C11.8201 12.9375 12.3312 12.5206 12.3312 11.8068C12.3312 11.093 11.8201 10.6761 10.7969 9.84139C10.5143 9.61106 10.2344 9.39405 9.97651 9.21321Z" fill="white"/>
</svg>
