<svg width="21" height="20" viewBox="0 0 21 20" fill="none" xmlns="http://www.w3.org/2000/svg">
<path d="M3 7.59169V12.4C3 14.1667 3 14.1667 4.66667 15.2917L9.25 17.9417C9.94167 18.3417 11.0667 18.3417 11.75 17.9417L16.3333 15.2917C18 14.1667 18 14.1667 18 12.4084V7.59169C18 5.83336 18 5.83336 16.3333 4.70836L11.75 2.05836C11.0667 1.65836 9.94167 1.65836 9.25 2.05836L4.66667 4.70836C3 5.83336 3 5.83336 3 7.59169Z" stroke="#AEADB5" stroke-width="1.5" stroke-linecap="round" stroke-linejoin="round"/>
<path d="M10.5 12.5C11.8807 12.5 13 11.3807 13 10C13 8.61929 11.8807 7.5 10.5 7.5C9.11929 7.5 8 8.61929 8 10C8 11.3807 9.11929 12.5 10.5 12.5Z" stroke="#AEADB5" stroke-width="1.5" stroke-linecap="round" stroke-linejoin="round"/>
</svg>
