<svg width="10" height="10" viewBox="0 0 10 10" fill="none" xmlns="http://www.w3.org/2000/svg">
<path d="M5.7208 1.4626L6.45413 2.92926C6.55413 3.13343 6.8208 3.32926 7.0458 3.36676L8.37496 3.5876C9.22496 3.72926 9.42496 4.34593 8.81246 4.95426L7.77913 5.9876C7.60413 6.1626 7.5083 6.5001 7.56246 6.74176L7.8583 8.02093C8.09163 9.03343 7.55413 9.4251 6.6583 8.89593L5.41246 8.15843C5.18746 8.0251 4.81663 8.0251 4.58746 8.15843L3.34163 8.89593C2.44996 9.4251 1.9083 9.02927 2.14163 8.02093L2.43746 6.74176C2.49163 6.5001 2.3958 6.1626 2.2208 5.9876L1.18746 4.95426C0.579129 4.34593 0.774962 3.72926 1.62496 3.5876L2.95413 3.36676C3.17496 3.32926 3.44163 3.13343 3.54163 2.92926L4.27496 1.4626C4.67496 0.666764 5.32496 0.666764 5.7208 1.4626Z" fill="#5436F8"/>
</svg>
