<svg width="24" height="21" viewBox="0 0 24 21" fill="none" xmlns="http://www.w3.org/2000/svg">
<path d="M23.799 9.89893C21.7117 5.82619 17.5793 3.07062 12.8476 3.07062C8.11588 3.07062 3.98233 5.82812 1.89611 9.89931C1.80806 10.0735 1.76218 10.2659 1.76218 10.4611C1.76218 10.6563 1.80806 10.8487 1.89611 11.0229C3.98348 15.0956 8.11588 17.8512 12.8476 17.8512C17.5793 17.8512 21.7128 15.0937 23.799 11.0225C23.8871 10.8483 23.933 10.6559 23.933 10.4607C23.933 10.2655 23.8871 10.0731 23.799 9.89893ZM12.8476 16.0036C11.7513 16.0036 10.6797 15.6785 9.76822 15.0695C8.85672 14.4605 8.1463 13.5948 7.72679 12.582C7.30727 11.5692 7.19751 10.4547 7.41137 9.37957C7.62524 8.30439 8.15313 7.31677 8.92829 6.54161C9.70345 5.76645 10.6911 5.23856 11.7663 5.02469C12.8414 4.81082 13.9559 4.92059 14.9687 5.3401C15.9815 5.75962 16.8471 6.47004 17.4562 7.38153C18.0652 8.29303 18.3903 9.36465 18.3903 10.4609C18.3906 11.1889 18.2475 11.9098 17.9691 12.5824C17.6907 13.2551 17.2824 13.8662 16.7677 14.381C16.2529 14.8957 15.6417 15.304 14.9691 15.5824C14.2965 15.8608 13.5756 16.004 12.8476 16.0036ZM12.8476 6.76576C12.5178 6.77036 12.1901 6.81943 11.8734 6.91164C12.1344 7.2664 12.2597 7.70297 12.2265 8.14218C12.1932 8.58138 12.0037 8.99414 11.6923 9.30559C11.3808 9.61704 10.9681 9.80656 10.5289 9.83979C10.0897 9.87302 9.65308 9.74774 9.29832 9.48669C9.09631 10.2309 9.13277 11.0198 9.40259 11.7423C9.6724 12.4647 10.162 13.0844 10.8024 13.514C11.4428 13.9436 12.2019 14.1616 12.9727 14.1373C13.7435 14.1129 14.4872 13.8474 15.0993 13.3783C15.7113 12.9091 16.1608 12.2597 16.3845 11.5217C16.6081 10.7837 16.5947 9.99407 16.3461 9.26405C16.0976 8.53402 15.6263 7.90033 14.9987 7.45217C14.3711 7.00401 13.6188 6.76394 12.8476 6.76576Z" fill="white"/>
</svg>
